<svg width="15" height="14" viewBox="0 0 15 14" fill="none" xmlns="http://www.w3.org/2000/svg">
<g clip-path="url(#clip0_15_70)">
<path d="M11.9167 9.70703C11.9167 9.64019 11.9106 9.59158 11.8984 9.5612C11.8863 9.53082 11.8316 9.48069 11.7344 9.41081C11.6372 9.34093 11.5141 9.26497 11.3652 9.18294C11.2164 9.10091 11.072 9.0204 10.9323 8.94141C10.7925 8.86241 10.6543 8.78646 10.5176 8.71354C10.3809 8.64062 10.2943 8.59505 10.2578 8.57682C10.2274 8.55859 10.1697 8.5191 10.0846 8.45833C9.99957 8.39757 9.92361 8.352 9.85677 8.32161C9.78993 8.29123 9.72613 8.27604 9.66536 8.27604C9.57422 8.27604 9.46332 8.33832 9.33268 8.46289C9.20204 8.58746 9.08203 8.72418 8.97266 8.87305C8.86328 9.02192 8.74631 9.15864 8.62174 9.2832C8.49718 9.40777 8.3954 9.47005 8.31641 9.47005C8.27387 9.47005 8.22374 9.45942 8.16602 9.43815C8.10829 9.41688 8.0612 9.39713 8.02474 9.37891C7.98828 9.36068 7.93663 9.33181 7.86979 9.29232C7.80295 9.25282 7.76042 9.227 7.74219 9.21484C7.14062 8.88064 6.62413 8.49631 6.19271 8.06185C5.76128 7.62739 5.37543 7.10937 5.03516 6.50781C5.023 6.48958 4.99718 6.44705 4.95768 6.38021C4.91819 6.31337 4.88932 6.26172 4.87109 6.22526C4.85286 6.1888 4.83312 6.14171 4.81185 6.08398C4.79058 6.02626 4.77995 5.97613 4.77995 5.93359C4.77995 5.8546 4.84223 5.75282 4.9668 5.62825C5.09136 5.50369 5.22808 5.38672 5.37695 5.27734C5.52582 5.16797 5.66254 5.04796 5.78711 4.91732C5.91167 4.78667 5.97396 4.67578 5.97396 4.58464C5.97396 4.52387 5.95877 4.46007 5.92839 4.39323C5.898 4.32639 5.85243 4.25043 5.79167 4.16536C5.7309 4.0803 5.69141 4.02257 5.67318 3.99219C5.65495 3.95573 5.60938 3.86914 5.53646 3.73242C5.46354 3.5957 5.38759 3.45747 5.30859 3.31771C5.2296 3.17795 5.14909 3.03364 5.06706 2.88477C4.98503 2.73589 4.90907 2.61285 4.83919 2.51562C4.76931 2.4184 4.71918 2.36372 4.6888 2.35156C4.65842 2.33941 4.60981 2.33333 4.54297 2.33333C4.2513 2.33333 3.94444 2.40017 3.6224 2.53385C3.34288 2.66146 3.09983 2.94857 2.89323 3.39518C2.68663 3.8418 2.58333 4.23828 2.58333 4.58464C2.58333 4.68186 2.59093 4.78516 2.60612 4.89453C2.62131 5.00391 2.6365 5.09657 2.65169 5.17253C2.66688 5.24848 2.69423 5.34874 2.73372 5.47331C2.77322 5.59787 2.8036 5.6875 2.82487 5.74219C2.84614 5.79688 2.88411 5.89714 2.9388 6.04297C2.99349 6.1888 3.02691 6.27995 3.03906 6.31641C3.40365 7.31293 4.06141 8.28668 5.01237 9.23763C5.96332 10.1886 6.93707 10.8464 7.93359 11.2109C7.97005 11.2231 8.0612 11.2565 8.20703 11.3112C8.35286 11.3659 8.45312 11.4039 8.50781 11.4251C8.5625 11.4464 8.65213 11.4768 8.77669 11.5163C8.90126 11.5558 9.00152 11.5831 9.07747 11.5983C9.15343 11.6135 9.24609 11.6287 9.35547 11.6439C9.46484 11.6591 9.56814 11.6667 9.66536 11.6667C10.0117 11.6667 10.4082 11.5634 10.8548 11.3568C11.3014 11.1502 11.5885 10.9071 11.7161 10.6276C11.8498 10.3056 11.9167 9.9987 11.9167 9.70703ZM14.25 2.625V11.375C14.25 12.0981 13.9933 12.7164 13.4798 13.2298C12.9664 13.7433 12.3481 14 11.625 14H2.875C2.15191 14 1.53364 13.7433 1.02018 13.2298C0.506727 12.7164 0.25 12.0981 0.25 11.375V2.625C0.25 1.90191 0.506727 1.28364 1.02018 0.770182C1.53364 0.256727 2.15191 0 2.875 0H11.625C12.3481 0 12.9664 0.256727 13.4798 0.770182C13.9933 1.28364 14.25 1.90191 14.25 2.625Z" fill="#20C24D"/>
</g>
<defs>
<clipPath id="clip0_15_70">
<rect width="14" height="14" fill="white" transform="translate(0.25)"/>
</clipPath>
</defs>
</svg>
