<svg width="104" height="120" viewBox="0 0 104 120" fill="none" xmlns="http://www.w3.org/2000/svg">
<path d="M75.4516 25.2477C75.4516 26.3582 75.0104 27.4232 74.2252 28.2084C73.44 28.9936 72.375 29.4347 71.2645 29.4347H44.2164C43.1059 29.4347 42.0409 28.9936 41.2557 28.2084C40.4705 27.4232 40.0294 26.3582 40.0294 25.2477C40.0294 24.1373 40.4705 23.0723 41.2557 22.2871C42.0409 21.5018 43.1059 21.0607 44.2164 21.0607H71.2645C72.375 21.0607 73.44 21.5018 74.2252 22.2871C75.0104 23.0723 75.4516 24.1373 75.4516 25.2477ZM29.5451 21.0607H25.2324C24.122 21.0607 23.057 21.5018 22.2718 22.2871C21.4866 23.0723 21.0454 24.1373 21.0454 25.2477C21.0454 26.3582 21.4866 27.4232 22.2718 28.2084C23.057 28.9936 24.122 29.4347 25.2324 29.4347H29.5451C30.6555 29.4347 31.7205 28.9936 32.5057 28.2084C33.291 27.4232 33.7321 26.3582 33.7321 25.2477C33.7321 24.1373 33.291 23.0723 32.5057 22.2871C31.7205 21.5018 30.6555 21.0607 29.5451 21.0607ZM71.2645 37.8088H44.2164C43.1059 37.8088 42.0409 38.2499 41.2557 39.0351C40.4705 39.8204 40.0294 40.8853 40.0294 41.9958C40.0294 43.1063 40.4705 44.1713 41.2557 44.9565C42.0409 45.7417 43.1059 46.1828 44.2164 46.1828H71.2645C72.375 46.1828 73.44 45.7417 74.2252 44.9565C75.0104 44.1713 75.4516 43.1063 75.4516 41.9958C75.4516 40.8853 75.0104 39.8204 74.2252 39.0351C73.44 38.2499 72.375 37.8088 71.2645 37.8088ZM29.5451 37.8088H25.2324C24.122 37.8088 23.057 38.2499 22.2718 39.0351C21.4866 39.8204 21.0454 40.8853 21.0454 41.9958C21.0454 43.1063 21.4866 44.1713 22.2718 44.9565C23.057 45.7417 24.122 46.1828 25.2324 46.1828H29.5451C30.6555 46.1828 31.7205 45.7417 32.5057 44.9565C33.291 44.1713 33.7321 43.1063 33.7321 41.9958C33.7321 40.8853 33.291 39.8204 32.5057 39.0351C31.7205 38.2499 30.6555 37.8088 29.5451 37.8088ZM71.2645 54.5569H44.2164C43.1059 54.5569 42.0409 54.998 41.2557 55.7832C40.4705 56.5684 40.0294 57.6334 40.0294 58.7439C40.0294 59.8544 40.4705 60.9193 41.2557 61.7046C42.0409 62.4898 43.1059 62.9309 44.2164 62.9309H71.2645C72.375 62.9309 73.44 62.4898 74.2252 61.7046C75.0104 60.9193 75.4516 59.8544 75.4516 58.7439C75.4516 57.6334 75.0104 56.5684 74.2252 55.7832C73.44 54.998 72.375 54.5569 71.2645 54.5569ZM29.5451 54.5569H25.2324C24.122 54.5569 23.057 54.998 22.2718 55.7832C21.4866 56.5684 21.0454 57.6334 21.0454 58.7439C21.0454 59.8544 21.4866 60.9193 22.2718 61.7046C23.057 62.4898 24.122 62.9309 25.2324 62.9309H29.5451C30.6555 62.9309 31.7205 62.4898 32.5057 61.7046C33.291 60.9193 33.7321 59.8544 33.7321 58.7439C33.7321 57.6334 33.291 56.5684 32.5057 55.7832C31.7205 54.998 30.6555 54.5569 29.5451 54.5569ZM103.496 96.0837C103.495 100.816 102.09 105.441 99.4595 109.374C96.8293 113.308 93.0917 116.373 88.7194 118.182C84.3471 119.991 79.5365 120.463 74.8959 119.539C70.2553 118.614 65.9932 116.334 62.6484 112.987C59.3037 109.64 57.0265 105.376 56.105 100.735C55.1835 96.0934 55.659 91.2831 57.4713 86.9121C59.2836 82.541 62.3514 78.8056 66.2867 76.1781C70.222 73.5506 74.8481 72.1491 79.58 72.1507C85.9231 72.1596 92.0037 74.6845 96.4874 79.1714C100.971 83.6582 103.492 89.7406 103.496 96.0837ZM95.1222 96.0837C95.1222 93.0078 94.2099 90.0009 92.5009 87.4434C90.7918 84.886 88.3626 82.8928 85.5206 81.7161C82.6786 80.5393 79.5515 80.2318 76.5347 80.8326C73.518 81.4333 70.7472 82.9151 68.5727 85.0908C66.3982 87.2664 64.9179 90.038 64.3188 93.0551C63.7197 96.0722 64.0289 99.1991 65.2071 102.04C66.3854 104.882 68.3799 107.31 70.9382 109.018C73.4966 110.725 76.504 111.636 79.58 111.634C83.7014 111.628 87.6521 109.987 90.5656 107.072C93.4791 104.157 95.1178 100.205 95.1222 96.0837ZM44.3001 82.9867H13.065C11.9545 82.9867 10.8895 82.5456 10.1043 81.7604C9.31908 80.9752 8.87795 79.9102 8.87795 78.7997V12.5611C8.87795 11.4506 9.31908 10.3856 10.1043 9.60039C10.8895 8.81517 11.9545 8.37404 13.065 8.37404H83.5744C84.6848 8.37404 85.7498 8.81517 86.5351 9.60039C87.3203 10.3856 87.7614 11.4506 87.7614 12.5611V61.8842C87.7614 62.9946 88.2025 64.0596 88.9877 64.8448C89.773 65.63 90.838 66.0712 91.9484 66.0712C93.0589 66.0712 94.1239 65.63 94.9091 64.8448C95.6943 64.0596 96.1354 62.9946 96.1354 61.8842V12.5611C96.131 9.23102 94.8062 6.03864 92.4515 3.68394C90.0968 1.32925 86.9044 0.0044312 83.5744 0H13.065C9.73493 0.0044312 6.54254 1.32925 4.18785 3.68394C1.83315 6.03864 0.508337 9.23102 0.503906 12.5611V78.7997C0.508337 82.1298 1.83315 85.3221 4.18785 87.6768C6.54254 90.0315 9.73493 91.3563 13.065 91.3608H44.3001C45.4106 91.3608 46.4756 90.9196 47.2608 90.1344C48.046 89.3492 48.4872 88.2842 48.4872 87.1738C48.4872 86.0633 48.046 84.9983 47.2608 84.2131C46.4756 83.4279 45.4106 82.9867 44.3001 82.9867ZM79.58 82.9867C78.4695 82.9867 77.4045 83.4279 76.6193 84.2131C75.8341 84.9983 75.393 86.0633 75.393 87.1738V91.8967H73.1738C72.0634 91.8967 70.9984 92.3378 70.2132 93.1231C69.4279 93.9083 68.9868 94.9733 68.9868 96.0837C68.9868 97.1942 69.4279 98.2592 70.2132 99.0444C70.9984 99.8296 72.0634 100.271 73.1738 100.271H79.58C80.6904 100.271 81.7554 99.8296 82.5406 99.0444C83.3258 98.2592 83.767 97.1942 83.767 96.0837V87.1738C83.767 86.0633 83.3258 84.9983 82.5406 84.2131C81.7554 83.4279 80.6904 82.9867 79.58 82.9867Z" fill="#8B8C8C"/>
</svg>
